<svg version="1.2" xmlns="http://www.w3.org/2000/svg" viewBox="0 0 1548 444" width="1548" height="444"><style>.a{fill:#a52960}</style><path class="a" d="m1547.8 443.8h-422.3v-106.1h39.9v-231h-39.9v-106.4h253.6v106.4h-42.1v230.6h104.9v-70.5h105.9zm-724.1 0h-251.2v-106.1h38.5v-231h-38.5v-106.4h271.2c53.2 0 94.4 3 123.6 9.2 28.8 6.5 51.3 19.1 67.7 38.2 16.3 19.2 24.6 41.8 24.6 67.4 0 25.2-7.9 45.1-23.3 60-16 15.2-35.3 25.9-58.1 31.9 31.3 9.2 55.2 23.7 72.1 43.4 17 19.8 25.5 42.3 25.5 67.2 0 29.7-9.5 55-28.7 75.8-19.1 20.7-45.5 34.2-78.8 40.5q-49.5 9.9-144.6 9.9zm-40.8-346v80.8h37.9q38.7 0 50.7-11.1c7.7-7.4 11.5-17.2 11.5-29.3 0-10.4-3.5-19.7-10.5-28-7-8.3-26.2-12.4-57.7-12.4zm0 161.1v87.6h38.6c24.7 0 42.4-3.2 53.2-9.6 10.7-6.5 16-17.7 16-33.9q0-22.7-14.3-33.5c-9.6-7.1-28.2-10.6-55.6-10.6zm-548.1 184.9h-233.9v-106.2h33.6v-231.2h-34.1v-106.1h234.4v106.1h-28.4v67.6h102.7v-67.6h-28.8v-106.1h234.2v106.1h-33.5v231.2h33.5v106.2h-234.2v-106.3h28.8v-72.7h-102.7v72.7h28.4z"/></svg>