<svg version="1.2" xmlns="http://www.w3.org/2000/svg" viewBox="0 0 1456 1457" width="1456" height="1457">
	<title>eBiz-Plus-Brochure-1-pdf-svg</title>

	<style>
		.s0 { fill: #683278;stroke: #683278;stroke-miterlimit:3.864000082015991;stroke-width: 7 } 
		.s1 { fill: #ffffff;stroke: #683278;stroke-miterlimit:3.864000082015991;stroke-width: 7 } 
		.s2 { fill: none;stroke: #215b41;stroke-miterlimit:3.864000082015991;stroke-width: 7 } 
		.s3 { fill: #215b41 } 
		.s4 { fill: #ffffff } 
		.s5 { fill: none;stroke: #215b41;stroke-miterlimit:3.864000082015991;stroke-width: 22.4 } 
	</style>
	<g id="Clip-Path: Page 1" clip-path="url(#cp1)">
		<g id="Page 1">
			<path id="Path 241" class="s0" d="m728.4 1406.7c-374.8 0-677.7-303.2-677.7-678.3 0-375.1 302.9-678.3 677.7-678.3 374.7 0 677.6 303.2 677.6 678.3 0 375.1-302.9 678.3-677.6 678.3z"/>
			<path id="Path 242" class="s1" d="m728.4 1167.1c-242.2 0-438-195.8-438-438 0-242.2 195.8-437.9 438-437.9 242.1 0 437.9 195.7 437.9 437.9 0 242.2-195.8 438-437.9 438z"/>
			<path id="Path 243" fill-rule="evenodd" class="s2" d="m728.4 1140.5c-228.3 0-412.8-184.2-412.8-412.1 0-227.8 184.5-412 412.8-412 228.2 0 412.7 184.2 412.7 412 0 227.9-184.5 412.1-412.7 412.1z"/>
			<path id="Path 244" fill-rule="evenodd" class="s3" d="m454.4 961.1l-36.5-85.5 99.5-189.2h112.1l99.6 189.2-35.1 85.5zm351.8-574.6l127.5 259.3h-113.5l-89.7-172.4-88.3 172.4h-113.5l127.5-259.3zm-37.8 574.6l-36.4-85.5 100.9-189.2h110.7l100.9 189.2-36.5 85.5z"/>
			<path id="Path 245" fill-rule="evenodd" class="s4" d="m978.5 306.6l14-14 11.2 11.2 141.6-57.5 33.6 30.9-42 145.7 12.6 11.2-14 14-60.3-54.6 12.6-15.4 18.3 16.8 9.8-29.4-56.1-50.5-28 12.6 18.2 16.8-14 14.1zm142.9 37.8l21.1-65.9-63.1 28.1zm29.4 130.3l18.2-7 8.4 22.4 109.4-39.2-8.4-22.5 18.2-7 26.6 71.5-89.7 112.1 96.7-35-8.4-22.4 18.2-7 28.1 75.6-18.3 7-8.4-21-127.5 46.3-16.8-47.7 91.1-114.9-99.5 36.4 8.4 21.1-19.7 7zm-369.9-225.7l5.6-23.8 135.9-82.7-74.3-18.2-8.4 30.8-30.8-8.4 12.6-49 150 37.8-5.7 23.8-138.7 81.3 82.7 21 7-32.2 32.2 8.4-12.6 49.1zm-217.2 26.6l-2.8-18.2 22.4-4.2-19.6-114.9-23.8 4.2-2.8-19.7 165.3-29.4 7 47.7-29.4 5.6-5.6-28.1-72.9 12.6 8.4 46.3 29.5-4.2-4.2-19.6 26.6-5.6 11.2 58.8-26.6 4.2-4.2-19.6-29.5 5.6 8.4 49.1 74.3-12.6-5.6-29.5 30.9-5.6 8.4 49.1zm-182.2 119.1l-12.6-15.4 19.6-14-68.7-93.9-19.6 12.6-11.2-15.4 135.9-98.1 28 37.8-25.2 18.2-16.8-22.4-60.3 43.4 28.1 39.3 23.8-18.2-11.2-15.5 21-16.8 35 49.1-21 15.4-11.2-15.4-25.2 16.8 29.4 40.6 60.3-43.4-18.2-25.2 25.2-18.3 29.4 40.7zm-30.8 26.6l-35.1 72.9-16.8-8.4 8.4-19.6-105.1-49.1 100.9 105.1-14 32.3-145.7-12.7 106.5 50.5 8.4-18.2 16.8 8.4-30.8 68.7-18.3-8.5 9.9-21-106.6-49-9.8 21-16.8-8.4 35.1-75.7 127.5 12.6-91.1-89.7 35-77.1 18.2 8.5-9.8 21 105.1 49 9.9-21zm98.1 695.1q15.4 12.6 21 19.7 7 7 9.8 15.4 2.8 8.4 1.4 18.2-1.4 9.8-7 16.8-19.6 23.8-53.3 2.8 15.5 12.6 18.3 29.4 1.4 16.9-8.5 29.5-7 8.4-18.2 11.2-11.2 2.8-22.4 0-12.6-2.8-22.4-9.8-9.8-7-23.8-16.8l-70.1-56.1 11.2-15.4 19.6 14 71.5-91.1-18.2-14 11.2-15.4zm-43.5-9.8l-28 36.4 16.8 14q9.8 7 15.4 11.2 5.6 2.8 11.2 4.2 5.7 0 11.3-2.8 5.6-1.4 9.8-5.6 4.2-7 4.2-12.6 1.4-5.6-2.8-11.2-2.8-5.6-7-9.8-5.6-4.2-9.8-8.4l-8.5-5.6zm-50.4 107.9q9.8 8.4 15.4 11.2 5.6 2.8 11.2 2.8 7 1.4 12.6-1.4 4.2-2.8 8.4-7 8.5-11.2 4.2-21-4.2-8.4-8.4-12.6-2.8-4.3-11.2-9.9l-1.4-1.4-21-16.8-30.8 40.7z"/>
			<path id="Path 246" fill-rule="evenodd" class="s4" d="m444.5 1300.2l5.7-19.6 15.4 5.6 103.7-110.7 44.8 12.6 22.5 150 15.4 4.2-5.6 19.6-78.5-23.8 5.6-19.6 23.8 7-4.2-30.9-71.5-21-21 22.4 23.8 7-5.6 19.7zm144.4-26.7l-8.4-68.6-44.9 51.8zm122 91.1l-2.8-19.6 23.8-2.8-14-114.9-23.9 2.8-2.8-19.7 74.3-9.8 89.7 112.2-11.2-102.4-23.8 4.3-2.8-19.7 79.9-9.8 1.4 19.6-21.1 2.8 15.4 134.6-49 5.6-91.1-114.9 12.6 105.1 21-2.8 2.8 19.6zm319.6-72.9l-11.2-15.4 18.2-14-70.1-93.9-18.2 14-11.2-15.4 67.3-51.9 11.2 16.9-18.3 12.6 32.3 42 15.4-77.1-15.4 11.2-11.2-15.4 61.6-47.6 12.6 16.8-12.6 8.4-18.2 78.5 91.1 12.6 12.6-9.8 12.6 15.4-64.4 49.1-12.6-15.5 16.8-12.6-86.9-11.2 36.4 49.1 18.2-14 12.7 15.4z"/>
			<path id="Path 247" fill-rule="evenodd" class="s5" d="m728.4 1444.6c-395.7 0-715.5-320.1-715.5-716.2 0-396 319.8-716.1 715.5-716.1 395.6 0 715.4 320.1 715.4 716.1 0 396.1-319.8 716.2-715.4 716.2z"/>
		</g>
	</g>
</svg>