<svg version="1.2" xmlns="http://www.w3.org/2000/svg" viewBox="0 0 1572 725" width="1572" height="725">
	<title>UBL</title>
	<defs>
		<clipPath clipPathUnits="userSpaceOnUse" id="cp1">
			<path d="m-760.95-343.59h10178.27v13566.5h-10178.27z"/>
		</clipPath>
	</defs>
	<style>
		.s0 { fill: #0083ca } 
	</style>
	<g id="Clip-Path: Clip-Path: Page 1" clip-path="url(#cp1)">
		<g id="Clip-Path: Page 1">
			<g id="Page 1">
				<path id="Path 13" fill-rule="evenodd" class="s0" d="m0.7 362.1c0-199.5 395-361.4 882.5-361.4 146.5 0 284.4 14.6 406.1 40.3 6-17.2 22.2-30 41.1-30 24 0 43.7 19.7 43.7 44.5 0 24-19.7 43.7-43.7 43.7-24 0-43.7-19.7-43.7-43.7q0-6.8 1.7-12c-99.4-17.1-209-26.5-323-26.5-463.5 0-838.7 152.4-838.7 340 0 188.4 375.2 340.9 838.7 340.9 216.8 0 414.7-33.4 563.8-89.1-161.1 71.1-390.7 115.6-646 115.6-487.5 0-882.5-161.8-882.5-362.3zm1570.4 143.9v7.7c0 11.2-11.1 20.6-24.8 20.6h-112.2l-3.5 0.9h-141.3c-49.7 0-89.1-40.3-89.1-89.1v-207.3c0-13.7 11.1-24.8 25.7-24.8h8.5c13.7 0 25.7 11.1 25.7 24.8v195.3c0 27.4 22.3 50.5 50.6 50.5h235.6c13.7 0 24.8 9.4 24.8 21.4zm-951.8-292h8.6c14.5 0 25.7 11.1 25.7 24.8v207.3c0 48.8-39.5 89.1-89.1 89.1h-225.4c-48.8 0-89.1-40.3-89.1-89.1v-207.3c0-13.7 12-24.8 25.7-24.8h8.6c14.6 0 25.7 11.1 25.7 24.8v195.3c0 27.4 23.1 50.5 50.5 50.5h182.5c28.3 0 50.6-23.1 50.6-50.5v-78l0.8-2.5v-114.8c0-13.7 11.2-24.8 24.9-24.8zm132.8 0h272.4c54.9 0 100.3 41.9 100.3 94.2 0 25.7-11.2 48.8-30 65.9 18.8 17.2 30 41.1 30 66.8 0 52.3-45.4 94.3-100.3 94.3h-280.1c-9.4-4.3-17.2-13.8-17.2-25.7v-270.7c0-13.7 11.2-24.8 24.9-24.8zm322.1 226.9c0-20.5-18.8-43.6-49.7-43.6h-239.9v87.3h239.9c30.9 0 49.7-23.1 49.7-43.7zm0-132.7c0-20.6-18.8-43.7-49.7-43.7h-239.9v86.5h239.9c30.9 0 49.7-22.3 49.7-42.8z"/>
			</g>
		</g>
	</g>
</svg>