<?xml version="1.0" encoding="UTF-8"?>
<svg version="1.1" xmlns="http://www.w3.org/2000/svg" width="518" height="518">
<path d="M0 0 C1.04188477 0.21962402 2.08376953 0.43924805 3.15722656 0.66552734 C36.79111315 8.00184746 70.06359221 21.70369958 98 42 C98.68545898 42.49757812 99.37091797 42.99515625 100.07714844 43.5078125 C109.9714798 50.75562221 119.2146651 58.44881062 128 67 C128.67063477 67.64485352 129.34126953 68.28970703 130.03222656 68.95410156 C138.96783988 77.56698393 147.36830484 86.2748301 154.72607422 96.28173828 C156.02250666 98.03035682 157.35288718 99.74828803 158.69140625 101.46484375 C181.52660694 131.12496541 196.48882006 167.50968017 204 204 C204.21027832 205.00111816 204.42055664 206.00223633 204.63720703 207.03369141 C210.98924225 238.75363289 210.68608653 274.37374941 204 306 C203.67056396 307.56282715 203.67056396 307.56282715 203.33447266 309.15722656 C195.99815254 342.79111315 182.29630042 376.06359221 162 404 C161.50242187 404.68545898 161.00484375 405.37091797 160.4921875 406.07714844 C153.24437779 415.9714798 145.55118938 425.2146651 137 434 C136.35514648 434.67063477 135.71029297 435.34126953 135.04589844 436.03222656 C126.43301607 444.96783988 117.7251699 453.36830484 107.71826172 460.72607422 C105.96964318 462.02250666 104.25171197 463.35288718 102.53515625 464.69140625 C72.87503459 487.52660694 36.49031983 502.48882006 0 510 C-1.00111816 510.21027832 -2.00223633 510.42055664 -3.03369141 510.63720703 C-34.75363289 516.98924225 -70.37374941 516.68608653 -102 510 C-103.56282715 509.67056396 -103.56282715 509.67056396 -105.15722656 509.33447266 C-138.79111315 501.99815254 -172.06359221 488.29630042 -200 468 C-200.68545898 467.50242187 -201.37091797 467.00484375 -202.07714844 466.4921875 C-211.9714798 459.24437779 -221.2146651 451.55118938 -230 443 C-230.67063477 442.35514648 -231.34126953 441.71029297 -232.03222656 441.04589844 C-240.96783988 432.43301607 -249.36830484 423.7251699 -256.72607422 413.71826172 C-258.02250666 411.96964318 -259.35288718 410.25171197 -260.69140625 408.53515625 C-283.52660694 378.87503459 -298.48882006 342.49031983 -306 306 C-306.21027832 304.99888184 -306.42055664 303.99776367 -306.63720703 302.96630859 C-312.98924225 271.24636711 -312.68608653 235.62625059 -306 204 C-305.78037598 202.95811523 -305.56075195 201.91623047 -305.33447266 200.84277344 C-297.99815254 167.20888685 -284.29630042 133.93640779 -264 106 C-263.50242187 105.31454102 -263.00484375 104.62908203 -262.4921875 103.92285156 C-255.24437779 94.0285202 -247.55118938 84.7853349 -239 76 C-238.35514648 75.32936523 -237.71029297 74.65873047 -237.04589844 73.96777344 C-228.43301607 65.03216012 -219.7251699 56.63169516 -209.71826172 49.27392578 C-207.96964318 47.97749334 -206.25171197 46.64711282 -204.53515625 45.30859375 C-174.87503459 22.47339306 -138.49031983 7.51117994 -102 0 C-100.99888184 -0.21027832 -99.99776367 -0.42055664 -98.96630859 -0.63720703 C-67.24636711 -6.98924225 -31.62625059 -6.68608653 0 0 Z " fill="#35068F" transform="translate(310,4)"/>
<path d="M0 0 C1.04188477 0.21962402 2.08376953 0.43924805 3.15722656 0.66552734 C43.08787987 9.37531634 87.60277212 27.60277212 117 57 C117 57.99 117 58.98 117 60 C117.57419678 60.25040039 118.14839355 60.50080078 118.73999023 60.75878906 C123.18318119 63.19901622 126.51521504 67.1792847 130.0625 70.75 C130.91577881 71.60746826 131.76905762 72.46493652 132.64819336 73.34838867 C139.3643999 80.18451608 145.38079124 87.25171781 151 95 C151.85491814 96.14884745 152.71039429 97.29727984 153.56640625 98.4453125 C159.610055 106.6374824 164.98204998 115.14679612 170 124 C170.39687012 124.69125977 170.79374023 125.38251953 171.20263672 126.09472656 C182.00519777 145.0774102 190.04071642 165.72545511 195 187 C195.32242676 188.36390869 195.32242676 188.36390869 195.65136719 189.75537109 C210.87055716 255.2022301 200.6590155 326.57640815 165.41308594 384.11352539 C160.90549192 391.29923789 156.12265601 398.24080173 151 405 C150.56864746 405.57411621 150.13729492 406.14823242 149.69287109 406.73974609 C142.96767575 415.65020023 135.74099291 423.96070293 128 432 C127.49823242 432.52368164 126.99646484 433.04736328 126.47949219 433.58691406 C119.71840953 440.60887451 112.69062062 446.98869431 105 453 C104.06285156 453.76570313 103.12570312 454.53140625 102.16015625 455.3203125 C58.95442175 489.90714244 -1.27374036 512.90324017 -57 509 C-61.83602692 508.17183039 -65.61898148 506.93138458 -69.6875 504.1875 C-71 502 -71 502 -71.1875 499.1875 C-68.35626343 491.58786501 -60.86148909 487.28157948 -54.125 483.375 C-52.83275513 482.61521851 -52.83275513 482.61521851 -51.5144043 481.84008789 C-30.81988136 469.82242888 -9.33852102 459.91272919 12.67578125 450.59765625 C41.01725788 438.59122228 67.35372436 424.20481567 89.51904297 402.44580078 C90.9955881 401.00430716 92.49668515 399.59291156 94.00390625 398.18359375 C102.36912106 390.24296769 109.26962887 381.3436208 116 372 C116.45117188 371.37754395 116.90234375 370.75508789 117.3671875 370.11376953 C129.47690997 353.22896332 138.32199156 334.62798348 145 315 C145.37463379 313.90292725 145.37463379 313.90292725 145.75683594 312.78369141 C162.94445553 261.32810626 157.04863039 203.57391633 133.23046875 155.265625 C127.01028485 143.1129936 119.56027239 131.62754906 111 121 C110.3822168 120.22994629 110.3822168 120.22994629 109.75195312 119.44433594 C75.35178925 76.84503526 25.37130603 50.84019042 -28.83146667 44.21264648 C-32.50863082 43.85206359 -36.17845391 43.79779569 -39.87109375 43.76171875 C-40.70222687 43.75187958 -41.53335999 43.74204041 -42.38967896 43.73190308 C-102.7257143 43.16524556 -155.6402954 62.69264743 -199.3125 105.0625 C-203.8720624 109.76727139 -207.93852277 114.86580702 -212 120 C-212.81726563 121.01191406 -213.63453125 122.02382812 -214.4765625 123.06640625 C-220.31487973 130.38015547 -225.32485336 137.99319649 -229.93847656 146.13232422 C-230.94984701 147.91175935 -231.986035 149.67702092 -233.0234375 151.44140625 C-243.55492905 169.79118275 -249.70860975 190.39059834 -254 211 C-254.17789063 211.83966309 -254.35578125 212.67932617 -254.5390625 213.54443359 C-264.51657223 262.92716775 -253.21587169 317.80333541 -225.94921875 359.8046875 C-220.02929784 368.57689043 -213.38176859 376.42925813 -206 384 C-205.41089844 384.65097656 -204.82179688 385.30195313 -204.21484375 385.97265625 C-192.88177566 398.19677638 -176.43341469 406.30277594 -160.9375 411.8125 C-160.15947021 412.0904541 -159.38144043 412.3684082 -158.57983398 412.65478516 C-146.37460157 416.79501368 -134.56286078 418.54006059 -121.6875 418.4375 C-120.67011246 418.43194092 -120.67011246 418.43194092 -119.63217163 418.42626953 C-108.91856697 418.34314389 -99.14144146 417.62658139 -89 414 C-88.20062012 413.72091797 -87.40124023 413.44183594 -86.57763672 413.15429688 C-56.45536786 402.42035428 -32.14566726 382.20834047 -15.8125 354.6875 C-15.41337402 354.04208252 -15.01424805 353.39666504 -14.60302734 352.73168945 C-12.38015736 348.81837643 -11.46842587 345.87761994 -12.35180664 341.29077148 C-13.81462953 336.12102867 -15.81580632 331.16996573 -17.8125 326.1875 C-18.32904562 324.87829254 -18.84463577 323.56870779 -19.359375 322.25878906 C-20.53774808 319.26421992 -21.72161893 316.27189271 -22.90869141 313.28076172 C-26.68429256 303.75887533 -30.4137003 294.21873811 -34.15292358 284.68252563 C-35.48109467 281.29817324 -36.81209718 277.91494694 -38.14379883 274.53198242 C-38.98129383 272.40153438 -39.81877801 270.27108209 -40.65625 268.140625 C-41.03504807 267.18011734 -41.41384613 266.21960968 -41.80412292 265.22999573 C-44.02902973 259.56452735 -46.12369173 253.87582531 -48.08239746 248.11224365 C-48.80518927 245.82983454 -48.80518927 245.82983454 -51 245 C-51.17400833 245.55266037 -51.34801666 246.10532074 -51.52729797 246.67472839 C-53.26939958 252.07022692 -55.30637969 257.21228481 -57.66796875 262.36328125 C-58.02000366 263.1411348 -58.37203857 263.91898834 -58.73474121 264.72041321 C-59.88170424 267.25292448 -61.03459519 269.78268893 -62.1875 272.3125 C-63.81444175 275.89886082 -65.43843081 279.48655637 -67.0625 283.07421875 C-67.47408859 283.982323 -67.88567719 284.89042725 -68.30973816 285.8260498 C-71.06870663 291.91959328 -73.79657127 298.02615768 -76.5 304.14453125 C-76.85628983 304.95028091 -77.21257965 305.75603058 -77.57966614 306.5861969 C-78.94255829 309.6699309 -80.30487619 312.75389525 -81.66073608 315.84072876 C-84.89061837 323.1928335 -88.16919201 330.51680606 -91.69140625 337.734375 C-92.49300171 339.38131348 -92.49300171 339.38131348 -93.31079102 341.06152344 C-97.57026747 348.47112867 -103.97215627 352.85390328 -112.04296875 355.37109375 C-121.87341186 357.46184849 -129.56318778 356.46097601 -138 351 C-138.928125 350.401875 -139.85625 349.80375 -140.8125 349.1875 C-147.23373954 342.76626046 -150.03660481 334.31353984 -153.109375 325.94921875 C-153.58722661 324.66675711 -154.06565379 323.38450979 -154.5446167 322.10246277 C-156.04499949 318.07385934 -157.52526126 314.03805165 -159 310 C-159.3527449 309.03474773 -159.3527449 309.03474773 -159.71261597 308.04999542 C-163.01835334 298.99583296 -166.27619934 289.92470179 -169.52147675 280.84872437 C-170.77084711 277.356731 -172.0236102 273.86595478 -173.27587891 270.375 C-177.69941205 258.03975395 -182.11017169 245.69997111 -186.5078125 233.35546875 C-186.84284286 232.41544006 -187.17787323 231.47541138 -187.52305603 230.50689697 C-189.07454645 226.15320199 -190.62397252 221.79879673 -192.16918945 217.44287109 C-194.67013013 210.40703814 -197.20554532 203.39403062 -199.91015625 196.43359375 C-200.34344238 195.3146875 -200.77672852 194.19578125 -201.22314453 193.04296875 C-201.98963103 191.08283439 -202.76888717 189.12760181 -203.56591797 187.1796875 C-205.69365318 181.76249249 -206.86903322 176.83963991 -206 171 C-203.74459796 166.48919592 -201.49371826 164.19912077 -197 162 C-193.78955078 161.61181641 -193.78955078 161.61181641 -190.1953125 161.6015625 C-188.23658203 161.59576172 -188.23658203 161.59576172 -186.23828125 161.58984375 C-185.5623291 161.59612793 -184.88637695 161.60241211 -184.18994141 161.60888672 C-182.1376641 161.62490118 -180.0873715 161.60904173 -178.03515625 161.58984375 C-170.09216174 161.61332058 -164.24193449 161.72765054 -157.8125 166.6875 C-153.40228277 172.31432888 -151.18447131 178.95538037 -149.1875 185.73828125 C-148.67027621 187.44548399 -148.15302234 189.15267762 -147.63574219 190.85986328 C-147.36934937 191.74869202 -147.10295654 192.63752075 -146.82849121 193.55328369 C-142.39149839 208.33029374 -137.77667077 223.03758996 -132.75 237.625 C-132.38122742 238.69566711 -132.38122742 238.69566711 -132.00500488 239.78796387 C-128.37798665 250.28407135 -124.58337437 260.71216927 -120.58886719 271.07470703 C-120.24500977 271.96915527 -119.90115234 272.86360352 -119.546875 273.78515625 C-119.24620117 274.55738525 -118.94552734 275.32961426 -118.63574219 276.12524414 C-118 278 -118 278 -118 280 C-117.01 280 -116.02 280 -115 280 C-114.6189209 278.80391113 -114.2378418 277.60782227 -113.84521484 276.37548828 C-111.65428258 269.81163602 -109.05150548 263.41248463 -106.4765625 256.9921875 C-105.92891721 255.62205896 -105.38142519 254.25186914 -104.83407593 252.88162231 C-103.68419541 250.00471586 -102.53246225 247.12856013 -101.37939453 244.25292969 C-100.22538181 241.37461936 -99.07360982 238.49543233 -97.92431641 235.61523438 C-94.82884653 227.85808985 -91.71924695 220.10696639 -88.57938004 212.36767197 C-87.12704819 208.78780425 -85.68037572 205.20586796 -84.24597168 201.61877441 C-82.81580473 198.04391867 -81.36940928 194.47602654 -79.91160202 190.91235733 C-79.37016173 189.58145681 -78.83411726 188.24834561 -78.3040657 186.9128685 C-74.62290301 177.65296739 -70.27345303 167.85193475 -60.55859375 163.62890625 C-52.78896418 161.71911944 -43.78709749 161.67973773 -36.4375 165 C-28.40571005 169.90757116 -24.79471927 175.96123728 -21.29296875 184.48046875 C-20.94673965 185.31355057 -20.60051056 186.14663239 -20.24378967 187.00495911 C-16.26710448 196.6531582 -12.59344775 206.41438935 -8.9375 216.1875 C-8.20672686 218.13405143 -7.47568352 220.08050144 -6.74438477 222.02685547 C-5.62041106 225.01927389 -4.49700486 228.01189919 -3.37535095 231.00518799 C-1.1456568 236.95535227 1.09535656 242.90106163 3.34840393 248.84242249 C4.75543773 252.55338418 6.15862645 256.26579309 7.56124878 259.97842407 C8.22611264 261.73583785 8.89254348 263.49265964 9.56057739 265.24887085 C10.48377634 267.67722921 11.40082707 270.10782296 12.31640625 272.5390625 C12.72759705 273.6139518 12.72759705 273.6139518 13.14709473 274.71055603 C14.23833451 277.62418322 15 279.86027708 15 283 C15.99 283 16.98 283 18 283 C18.09482666 282.20762939 18.18965332 281.41525879 18.28735352 280.59887695 C19.19777021 276.00125706 20.76195837 271.79980611 22.40234375 267.41796875 C22.75187607 266.47097107 23.10140839 265.52397339 23.46153259 264.54827881 C24.61515627 261.42613078 25.77622216 258.30680831 26.9375 255.1875 C27.74350661 253.01198727 28.54900049 250.83628453 29.35400391 248.66040039 C30.61016361 245.26530257 31.8667547 241.8703708 33.12536621 238.47618103 C36.12864139 230.3735445 39.10126795 222.26013366 42.05859375 214.140625 C43.27243691 210.81345552 44.48656873 207.48639148 45.70071411 204.15933228 C46.47907836 202.02377134 47.25601204 199.88768841 48.03146362 197.75106812 C49.11818788 194.75821945 50.21081374 191.76758535 51.3046875 188.77734375 C51.62066391 187.90229187 51.93664032 187.02723999 52.26219177 186.12567139 C57.65213312 171.44887284 57.65213312 171.44887284 62.4375 167.625 C62.99308594 167.16351563 63.54867188 166.70203125 64.12109375 166.2265625 C70.39645193 162.12996693 77.12745118 162.55920911 84.34716797 162.51953125 C86.49472148 162.50004789 88.63849448 162.43792024 90.78515625 162.375 C100.43282011 162.21930153 100.43282011 162.21930153 104.1171875 164.0546875 C106.17407549 166.11157549 106.94785336 168.23210298 107.14331055 171.11035156 C106.76121931 176.38744966 105.13382483 181.31556185 103.3125 186.25 C103.00981201 187.09111328 102.70712402 187.93222656 102.39526367 188.79882812 C101.27964218 191.87205968 100.14229197 194.93658062 99 198 C98.54496094 199.22138672 98.08992188 200.44277344 97.62109375 201.70117188 C86.97170453 230.21823136 75.97116092 258.60565686 65 287 C64.62065308 287.98208435 64.24130615 288.9641687 63.85046387 289.97601318 C59.22932184 301.93579633 54.58121782 313.88450751 49.86663818 325.80780029 C49.29981192 327.24161245 48.73374078 328.67572341 48.16851807 330.11016846 C38.76138691 353.9756837 28.54253223 377.42041854 13 398 C12.32710938 398.90234375 11.65421875 399.8046875 10.9609375 400.734375 C-2.21263639 417.7570178 -17.69726478 431.7126901 -36 443 C-36.62068359 443.38784668 -37.24136719 443.77569336 -37.88085938 444.17529297 C-53.26112485 453.67838446 -70.36222189 460.12006369 -88 464 C-89.26457031 464.29777344 -90.52914062 464.59554688 -91.83203125 464.90234375 C-112.31344303 469.27756156 -135.62014919 468.64362602 -156 464 C-156.76103027 463.83371094 -157.52206055 463.66742188 -158.30615234 463.49609375 C-196.54532827 454.95809292 -228.73551214 433.55970803 -253 403 C-254.19302734 401.53240234 -254.19302734 401.53240234 -255.41015625 400.03515625 C-262.45258565 391.18468634 -268.36441129 381.79819323 -274 372 C-274.6501709 370.87464844 -274.6501709 370.87464844 -275.31347656 369.7265625 C-289.86940913 344.21229707 -299.06526503 315.0864507 -303 286 C-303.15227051 284.96552734 -303.15227051 284.96552734 -303.30761719 283.91015625 C-312.89327569 217.02221739 -293.50505797 149.32331797 -253.75195312 95.30664062 C-249.03490153 89.09611896 -244.02464592 82.81433189 -238.35546875 77.44140625 C-236.85715093 75.95732055 -236.85715093 75.95732055 -235.64453125 73.6640625 C-233.68950827 70.49701814 -231.31746292 67.97575543 -228.6875 65.375 C-228.16260986 64.85429932 -227.63771973 64.33359863 -227.09692383 63.79711914 C-221.67670193 58.52681658 -215.8434817 53.88309187 -209.79882812 49.35449219 C-208.02307817 48.01737754 -206.26879577 46.65559123 -204.515625 45.2890625 C-174.84136561 22.4759272 -138.49144726 7.51141201 -102 0 C-100.99888184 -0.21027832 -99.99776367 -0.42055664 -98.96630859 -0.63720703 C-67.24636711 -6.98924225 -31.62625059 -6.68608653 0 0 Z " fill="#FDFDFE" transform="translate(310,4)"/>
<path d="M0 0 C0 4.20475378 -1.76145454 5.09471352 -4.6875 8.0625 C-15.43894147 19.34540175 -24.20951057 32.54228079 -32 46 C-32.37688965 46.63776367 -32.7537793 47.27552734 -33.14208984 47.93261719 C-59.93685994 93.41363942 -67.23914474 142.0768829 -68 194 C-68.33 194 -68.66 194 -69 194 C-69.02475223 188.11011053 -69.04288482 182.22025146 -69.05493164 176.33032227 C-69.05995478 174.32738721 -69.06677445 172.32445581 -69.07543945 170.3215332 C-69.08759345 167.43960669 -69.09324857 164.55772875 -69.09765625 161.67578125 C-69.10281754 160.78288895 -69.10797882 159.88999664 -69.11329651 158.970047 C-69.113667 154.8472736 -69.04768418 151.02035208 -68 147 C-68.99 147.33 -69.98 147.66 -71 148 C-70.35333888 120.66387096 -59.99519171 92.26824407 -48 68 C-47.58492187 67.15743652 -47.16984375 66.31487305 -46.7421875 65.44677734 C-40.92484337 53.75468108 -34.67979428 42.57068827 -27 32 C-26.50242188 31.31454102 -26.00484375 30.62908203 -25.4921875 29.92285156 C-17.69191458 19.27432628 -9.33637667 9.33637667 0 0 Z " fill="#2A0A89" transform="translate(73,78)"/>
<path d="M0 0 C0.33 0 0.66 0 1 0 C0.55087783 6.02769229 0.00778892 12.02883958 -0.73452759 18.02822876 C-2.01094507 28.56047045 -2.42293357 39.02493195 -2.625 49.625 C-2.66333844 51.32553731 -2.70239819 53.02605852 -2.7421875 54.7265625 C-2.83638753 58.81757175 -2.92101184 62.90866995 -3 67 C-3.33 67 -3.66 67 -4 67 C-4.02475223 61.11011053 -4.04288482 55.22025146 -4.05493164 49.33032227 C-4.05995478 47.32738721 -4.06677445 45.32445581 -4.07543945 43.3215332 C-4.08759345 40.43960669 -4.09324857 37.55772875 -4.09765625 34.67578125 C-4.10281754 33.78288895 -4.10797882 32.88999664 -4.11329651 31.970047 C-4.113667 27.8472736 -4.04768418 24.02035208 -3 20 C-3.99 20.33 -4.98 20.66 -6 21 C-5.03644647 8.33029613 -5.03644647 8.33029613 -4 3 C-3.01 3 -2.02 3 -1 3 C-0.67 2.01 -0.34 1.02 0 0 Z " fill="#1E0482" transform="translate(8,205)"/>
<path d="M0 0 C3.94619551 2.1693907 6.9371273 4.668107 10.1328125 7.83203125 C10.6070314 8.30083206 11.08125031 8.76963287 11.56983948 9.25263977 C13.09479197 10.76617186 14.61067981 12.28833471 16.125 13.8125 C16.64067535 14.32866882 17.15635071 14.84483765 17.68765259 15.37664795 C25.43642325 23.14822733 32.55057903 31.10512079 39 40 C40.07314453 41.31097656 40.07314453 41.31097656 41.16796875 42.6484375 C43.44678231 45.57348177 44.64764228 48.55763491 46 52 C46.5878125 53.4540625 46.5878125 53.4540625 47.1875 54.9375 C47.455625 55.618125 47.72375 56.29875 48 57 C44.92524606 54.12121939 42.69013932 51.17667755 40.4375 47.625 C30.95753375 33.19438471 19.57429927 20.54264518 7.4375 8.3125 C6.66805054 7.53592041 6.66805054 7.53592041 5.88305664 6.74365234 C3.19676872 4.03337315 3.19676872 4.03337315 0 2 C0 1.34 0 0.68 0 0 Z " fill="#240C86" transform="translate(427,62)"/>
<path d="M0 0 C0.33 0.66 0.66 1.32 1 2 C0.33837891 3.77392578 0.33837891 3.77392578 -0.7734375 5.9453125 C-1.18223145 6.76427002 -1.59102539 7.58322754 -2.01220703 8.42700195 C-2.46192871 9.31734131 -2.91165039 10.20768066 -3.375 11.125 C-9.11370506 22.77360765 -13.63814605 34.78074637 -18 47 C-19.13805733 43.585828 -18.86529183 43.02701781 -17.625 39.8125 C-16.52023267 36.75352202 -15.96219847 34.54638166 -15.6875 31.25 C-14.99763344 23.98438414 -11.18630853 16.06507015 -6 11 C-4.88902676 9.13215934 -3.82934503 7.23320728 -2.8125 5.3125 C-2.28269531 4.31863281 -1.75289062 3.32476562 -1.20703125 2.30078125 C-0.80871094 1.54152344 -0.41039063 0.78226563 0 0 Z " fill="#230785" transform="translate(34,132)"/>
<path d="M0 0 C0.66 0.33 1.32 0.66 2 1 C1.0479279 2.00596297 0.08812654 3.00461563 -0.875 4 C-1.40867187 4.556875 -1.94234375 5.11375 -2.4921875 5.6875 C-4 7 -4 7 -6 7 C-6.20367187 7.53109375 -6.40734375 8.0621875 -6.6171875 8.609375 C-8.59505609 12.02874104 -11.30326899 14.51337921 -14.125 17.25 C-14.68832031 17.80429688 -15.25164062 18.35859375 -15.83203125 18.9296875 C-17.21686028 20.29104485 -18.60783204 21.64614859 -20 23 C-20.33 22.01 -20.66 21.02 -21 20 C-18.81684474 17.7873365 -16.62767771 15.58071089 -14.4375 13.375 C-13.82841797 12.75753906 -13.21933594 12.14007813 -12.59179688 11.50390625 C-8.55729746 7.44806028 -4.38819088 3.67094475 0 0 Z " fill="#9488C2" transform="translate(95,57)"/>
<path d="M0 0 C0.33 0 0.66 0 1 0 C1.33801152 2.54112232 1.67053379 5.08276746 2 7.625 C2.09539063 8.33785156 2.19078125 9.05070312 2.2890625 9.78515625 C2.81606101 13.88821609 3.10466984 17.85245742 3 22 C1.35 22.66 -0.3 23.32 -2 24 C-2.33 23.67 -2.66 23.34 -3 23 C-2.71269945 20.66055264 -2.38063221 18.3260857 -2 16 C-1.34 16.33 -0.68 16.66 0 17 C-0.08378906 15.94039063 -0.16757813 14.88078125 -0.25390625 13.7890625 C-0.35706832 12.40106375 -0.45991663 11.01304165 -0.5625 9.625 C-0.61857422 8.92632812 -0.67464844 8.22765625 -0.73242188 7.5078125 C-1.11328125 2.2265625 -1.11328125 2.2265625 0 0 Z " fill="#2A0B89" transform="translate(6,281)"/>
<path d="M0 0 C0.66 0 1.32 0 2 0 C3.65 4.95 5.3 9.9 7 15 C6.01 15.66 5.02 16.32 4 17 C1.94162683 12.88325366 0.81526389 10.0160992 0.4375 5.375 C0.35371094 4.37210938 0.26992188 3.36921875 0.18359375 2.3359375 C0.12300781 1.56507813 0.06242187 0.79421875 0 0 Z " fill="#380990" transform="translate(500,167)"/>
<path d="M0 0 C0.33 0.99 0.66 1.98 1 3 C-1 5 -1 5 -4 7.5 C-8.94963438 11.706666 -13.45156246 16.36919639 -18 21 C-18.66 20.67 -19.32 20.34 -20 20 C-13.4 13.4 -6.8 6.8 0 0 Z " fill="#16027F" transform="translate(446,427)"/>
<path d="M0 0 C3.96 0.33 7.92 0.66 12 1 C12 2.32 12 3.64 12 5 C9.69 5 7.38 5 5 5 C5 4.34 5 3.68 5 3 C2.69 3.33 0.38 3.66 -2 4 C-1.34 2.68 -0.68 1.36 0 0 Z " fill="#3C0D93" transform="translate(285,511)"/>
<path d="M0 0 C0.99 0.33 1.98 0.66 3 1 C3.94921875 3.28515625 3.94921875 3.28515625 4.6875 6.0625 C5.06455078 7.44115234 5.06455078 7.44115234 5.44921875 8.84765625 C5.63097656 9.55792969 5.81273437 10.26820313 6 11 C5.34 11 4.68 11 4 11 C3.731875 10.360625 3.46375 9.72125 3.1875 9.0625 C2.11332248 6.66868314 2.11332248 6.66868314 -1 6 C-1.33 7.32 -1.66 8.64 -2 10 C-2.66 9.67 -3.32 9.34 -4 9 C-2.68 6.03 -1.36 3.06 0 0 Z " fill="#291187" transform="translate(259,249)"/>
<path d="M0 0 C0.99 0 1.98 0 3 0 C4.50662097 3.01324195 4.17770373 5.68286377 4 9 C3.34 9.66 2.68 10.32 2 11 C1.67 10.01 1.34 9.02 1 8 C0.67 9.65 0.34 11.3 0 13 C-0.33 13 -0.66 13 -1 13 C-0.67 8.71 -0.34 4.42 0 0 Z " fill="#3E1194" transform="translate(511,212)"/>
<path d="M0 0 C0.33 0 0.66 0 1 0 C0.85786703 1.89611434 0.71113093 3.79188394 0.5625 5.6875 C0.48128906 6.74324219 0.40007813 7.79898438 0.31640625 8.88671875 C0.03548319 11.65086297 -0.40156852 14.28945741 -1 17 C-1.33 17 -1.66 17 -2 17 C-2 14.36 -2 11.72 -2 9 C-2.66 9 -3.32 9 -4 9 C-4 7.02 -4 5.04 -4 3 C-3.01 3 -2.02 3 -1 3 C-0.67 2.01 -0.34 1.02 0 0 Z " fill="#220685" transform="translate(8,205)"/>
<path d="M0 0 C0.625 1.8125 0.625 1.8125 1 4 C-0.10267105 5.65400657 -1.23091673 7.29468195 -2.45703125 8.859375 C-4.16210388 11.22489348 -5.41180946 13.62966267 -6.6875 16.25 C-7.12449219 17.14203125 -7.56148437 18.0340625 -8.01171875 18.953125 C-8.33785156 19.62859375 -8.66398437 20.3040625 -9 21 C-10 18 -10 18 -9.30322266 16.11474609 C-8.9272998 15.42461426 -8.55137695 14.73448242 -8.1640625 14.0234375 C-7.75929688 13.270625 -7.35453125 12.5178125 -6.9375 11.7421875 C-6.504375 10.96101562 -6.07125 10.17984375 -5.625 9.375 C-5.19960938 8.58609375 -4.77421875 7.7971875 -4.3359375 6.984375 C-1.1896734 1.1896734 -1.1896734 1.1896734 0 0 Z " fill="#380B93" transform="translate(36,126)"/>
<path d="M0 0 C0.99 0.33 1.98 0.66 3 1 C1.44499019 4.81684226 -1.03595495 7.19195732 -4 10 C-4.66 9.67 -5.32 9.34 -6 9 C-4.02 6.03 -2.04 3.06 0 0 Z " fill="#2B098A" transform="translate(333,386)"/>
<path d="M0 0 C0.33 0.99 0.66 1.98 1 3 C0.34 3 -0.32 3 -1 3 C-1 3.66 -1 4.32 -1 5 C-2.03125 5.144375 -3.0625 5.28875 -4.125 5.4375 C-7.42549813 5.91660457 -10.71268341 6.43875083 -14 7 C-12.41861364 3.83722728 -9.67403949 3.56906311 -6.4375 2.375 C-4.64119141 1.70597656 -4.64119141 1.70597656 -2.80859375 1.0234375 C-1.41833984 0.51683594 -1.41833984 0.51683594 0 0 Z " fill="#291088" transform="translate(253,457)"/>
<path d="M0 0 C0.33 0.66 0.66 1.32 1 2 C0.07421875 4.390625 0.07421875 4.390625 -1.3125 7.25 C-3.14204731 11.11745973 -4.77783776 14.88909064 -6 19 C-6.66 19 -7.32 19 -8 19 C-7.38188466 14.44684052 -5.53234107 10.71540233 -3.4375 6.6875 C-2.9434668 5.71973633 -2.9434668 5.71973633 -2.43945312 4.73242188 C-1.63175745 3.15214772 -0.81662387 1.57567895 0 0 Z " fill="#1F0A82" transform="translate(245,282)"/>
<path d="M0 0 C0.66 0 1.32 0 2 0 C1.00956295 4.83628305 0.04301154 9.47618873 -2 14 C-2.66 13.67 -3.32 13.34 -4 13 C-3.52140759 11.39566191 -3.04210442 9.79153584 -2.5625 8.1875 C-2.29566406 7.29417969 -2.02882813 6.40085938 -1.75390625 5.48046875 C-1.19612127 3.64526945 -0.60655425 1.81966274 0 0 Z " fill="#380791" transform="translate(17,164)"/>
<path d="M0 0 C3 1 3 1 4.75 4.3125 C6.33072237 8.97563098 6.33072237 8.97563098 5 12 C5 11.34 5 10.68 5 10 C4.34 10 3.68 10 3 10 C2.01 6.7 1.02 3.4 0 0 Z " fill="#2D0F8A" transform="translate(14,330)"/>
<path d="M0 0 C0.99 0 1.98 0 3 0 C3 3.3 3 6.6 3 10 C2.01 10.33 1.02 10.66 0 11 C-1.28571429 3.57142857 -1.28571429 3.57142857 0 0 Z " fill="#390A92" transform="translate(8,191)"/>
<path d="M0 0 C0.33 0 0.66 0 1 0 C1.33 2.64 1.66 5.28 2 8 C2.33 8 2.66 8 3 8 C3 9.98 3 11.96 3 14 C2.01 13.67 1.02 13.34 0 13 C0 8.71 0 4.42 0 0 Z " fill="#3E1394" transform="translate(3,262)"/>
<path d="M0 0 C0.66 0 1.32 0 2 0 C1.51171875 6.0546875 1.51171875 6.0546875 1 8 C0.01 8.66 -0.98 9.32 -2 10 C-1.85950482 8.52031676 -1.71245174 7.04125484 -1.5625 5.5625 C-1.48128906 4.73878906 -1.40007812 3.91507813 -1.31640625 3.06640625 C-1 1 -1 1 0 0 Z " fill="#350990" transform="translate(510,199)"/>
<path d="M0 0 C0 3.51716303 -0.82445585 4.37121748 -3 7 C-3.99 6.34 -4.98 5.68 -6 5 C-4.02 3.35 -2.04 1.7 0 0 Z " fill="#210484" transform="translate(291,434)"/>
<path d="M0 0 C0 0.66 0 1.32 0 2 C-1.8125 2.6875 -1.8125 2.6875 -4 3 C-5.75 1.5625 -5.75 1.5625 -7 0 C-3.86650268 -1.04449911 -3.01031744 -0.93423645 0 0 Z " fill="#2C0E89" transform="translate(335,502)"/>
<path d="M0 0 C0.66 0.33 1.32 0.66 2 1 C2 3.31 2 5.62 2 8 C1.34 8 0.68 8 0 8 C-1.125 2.25 -1.125 2.25 0 0 Z " fill="#2E0988" transform="translate(176,232)"/>
<path d="M0 0 C0.66 0.33 1.32 0.66 2 1 C1.2884375 1.680625 1.2884375 1.680625 0.5625 2.375 C-1.09027808 3.93258204 -1.09027808 3.93258204 -2 6 C-2.99 5.67 -3.98 5.34 -5 5 C-4 2 -4 2 -2.0625 0.75 C-1.381875 0.5025 -0.70125 0.255 0 0 Z " fill="#260B85" transform="translate(168,67)"/>
</svg>
